<?xml version="1.0" encoding="UTF-8"?><svg id="Capa_1" xmlns="http://www.w3.org/2000/svg" viewBox="0 0 147.59 148.05"><defs><style>.cls-1{fill:#fff;stroke-width:0px;}</style></defs><path class="cls-1" d="m147.56,74.6c0,14.42.06,28.84-.02,43.26-.1,18.17-12.16,30.16-30.29,30.17-29,.02-58.01.03-87.01-.01-17.89-.03-30.01-11.97-30.07-29.84C.06,89.01.47,59.84,0,30.67-.29,11.9,15.41-.33,31.17,0c28.66.61,57.34.16,86.02.18,17.88.01,30,11.84,30.33,29.67.14,7.46.04,14.92.05,22.37,0,7.46,0,14.92,0,22.37Zm-73.94,48.91v-.02c7.62,0,15.25.17,22.87-.04,13.94-.37,25.57-10.39,26.31-24.19.87-16.35,1.01-32.81.2-49.16-.72-14.52-11.96-24.99-25.82-25.29-15.57-.34-31.16-.33-46.72,0-13.36.29-24.81,10.59-25.52,23.88-.86,16.19-1.13,32.48-.33,48.66.8,16.22,12.38,26.05,28.63,26.14,6.79.04,13.59,0,20.38,0Z"/><path class="cls-1" d="m34.2,74.1c0-7.46-.09-14.93.02-22.39.15-9.49,6.57-16.64,16.01-16.86,15.58-.37,31.17-.41,46.75-.08,10,.21,16.43,7.35,16.49,17.45.09,14.59.09,29.18,0,43.78-.06,10.07-6.5,17.2-16.51,17.42-15.41.34-30.84.33-46.25-.01-10.02-.22-16.4-7.33-16.51-17.42-.08-7.3-.02-14.59-.02-21.89h.01Zm66.75.33c.03-14.94-12.09-27.4-26.86-27.63-14.54-.23-27.26,12.48-27.3,27.27-.04,14.8,12.56,27.48,27.18,27.36,14.56-.12,26.95-12.51,26.98-27Zm-1.11-20.43c3.39.08,6.07-2.41,6.21-5.75.14-3.38-2.85-6.5-6.18-6.45-2.98.04-6.07,3.19-6.08,6.18,0,3.17,2.78,5.95,6.05,6.02Z"/><path class="cls-1" d="m67.86,89.58c-7.7-2.54-11.86-9.67-10.69-18.34,1-7.45,7.83-13.42,15.82-13.81,7.04-.35,13.66,3.62,16.37,9.82,2.73,6.26,1.31,14-3.47,18.83-4.88,4.94-11.7,6.26-18.06,3.49l.18-.12-.16.13Z"/></svg>