<?xml version="1.0" encoding="UTF-8"?><svg id="Capa_1" xmlns="http://www.w3.org/2000/svg" viewBox="0 0 147.86 147.75"><defs><style>.cls-1{fill:#fff;stroke-width:0px;}</style></defs><path class="cls-1" d="m82.56,86.46h-.01c-5.43-.03-10.86-.03-16.29,0-2.19,0-2.63.49-2.63,2.77v29.64h21.35c.04-.41.09-.7.09-.99,0-9.68.01-19.36,0-29.04,0-1.82-.59-2.36-2.51-2.37Z"/><path class="cls-1" d="m54.23,84.39v.02c-.05-2.21-1.29-3.54-3.49-3.6-3.18-.08-6.36-.07-9.54,0-2.19.05-3.47,1.23-3.52,3.37-.09,3.47-.09,6.95.02,10.42.06,1.99,1.26,3.14,3.28,3.2,3.29.1,6.59.11,9.89.03,2.1-.05,3.31-1.41,3.36-3.54.04-1.65,0-3.3,0-4.95s.03-3.3,0-4.95Z"/><path class="cls-1" d="m111.06,84.73h-.01v-.35c-.15-2.28-1.28-3.51-3.54-3.56-3.18-.07-6.36-.08-9.54,0-2.3.06-3.49,1.4-3.5,3.75-.02,3.18-.03,6.36,0,9.54.02,2.42,1.25,3.69,3.71,3.74,3.06.06,6.12.06,9.19,0,2.44-.05,3.62-1.29,3.69-3.76.04-1.59,0-3.18,0-4.77v-4.59Z"/><path class="cls-1" d="m147.82,38.95c0-3.88-.16-7.76-.43-11.62-.89-12.72-9.36-22.86-21.67-26.02C120.94.08,116.03.05,111.15.04,86.18,0,61.21-.03,36.24.06c-4.31.02-8.7.2-12.91,1.04C10.96,3.58,2.27,13.06.7,25.57.17,29.77.05,34.05.04,38.29-.02,62,0,85.72.04,109.44c0,3.73.17,7.46.46,11.17,1.03,13.12,9.94,23.45,22.85,25.99,4.64.91,9.49,1.01,14.25,1.07,12.13.14,24.26.05,36.39.05h-.01c11.23.01,22.47.04,33.7,0,3.99-.01,7.99-.13,11.97-.37,13.92-.83,24.4-9.64,27.15-23.21.87-4.27.98-8.75,1-13.13.09-24.02.06-48.03.02-72.05Zm-73.47-19.17h29.41v39.52h-29.41V19.78Zm-.02,40.73h30.06c-.72,1.14-1.17,2.14-1.87,2.91-2.29,2.5-5.32,3.62-8.55,4.22-5.48,1.02-10.79.56-15.72-2.24-2.36-1.34-3.42-2.71-3.96-4.89h.04Zm-30.25-40.73h28.77v39.52h-28.77V19.78Zm28.78,40.73h-.01s.75-.01.75-.01c-.39,1.94-1.57,3.18-3,4.22-3.48,2.51-7.5,3.35-11.67,3.4-4.24.04-8.33-.73-11.92-3.19-1.51-1.03-2.83-2.27-3.29-4.42h29.14Zm-59.29-3.52h0c5.23-11.55,10.5-23.07,15.74-34.6.79-1.75,2.11-2.6,4.03-2.6h9.27v39.52H12.91c.23-.85.34-1.63.66-2.32Zm-.36,3.56h0s29.74-.01,29.74-.01c-.17.41-.43.98-.82,1.63,0,0-.76,1.29-1.86,2.37-4.11,4.04-9.99,3.73-13.54,3.55-3.69-.19-7.25-1-10.32-3.21-1.48-1.06-2.81-2.3-3.2-4.33Zm115.18,67.41H19.43v-8.96h8.48v-49.45c6.04-.23,11.37-1.38,15.48-5.95,4.06,4.5,9.38,5.85,15.15,5.87,5.78.02,11.12-1.25,15.35-5.85,4.1,4.47,9.45,5.86,15.28,5.85,5.78,0,11.1-1.33,15.25-5.86,4.08,4.56,9.46,5.72,15.39,5.93v49.37h8.58v9.05Zm3.23-63.24h0c-6.88,5.15-18.4,5.82-24.16-.25-1.31-1.38-2.07-2.84-2.53-3.97h29.67c-.31,1.98-1.59,3.18-2.98,4.22Zm-26.39-5.42V19.78h9.06c2.11,0,3.38,1.03,4.22,2.87,4.48,9.87,8.98,19.73,13.49,29.59.74,1.61,1.57,3.17,2.29,4.79.3.67.42,1.42.66,2.27h-29.72Z"/></svg>