<?xml version="1.0" encoding="UTF-8"?><svg id="Capa_1" xmlns="http://www.w3.org/2000/svg" viewBox="0 0 147.86 147.75"><defs><style>.cls-1{fill:#fff;stroke-width:0px;}</style></defs><path class="cls-1" d="m73.99,147.72c-12.13,0-24.26.09-36.39-.05-4.76-.06-9.61-.16-14.25-1.07-12.91-2.54-21.82-12.87-22.85-25.99-.29-3.71-.46-7.44-.46-11.17C0,85.72-.02,62,.04,38.29c.01-4.24.13-8.52.66-12.72C2.27,13.06,10.96,3.58,23.33,1.1,27.54.26,31.93.08,36.24.06,61.21-.03,86.18,0,111.15.04c4.88.01,9.79.04,14.57,1.27,12.31,3.16,20.78,13.3,21.67,26.02.27,3.86.43,7.74.43,11.62.04,24.02.07,48.03-.02,72.05-.02,4.38-.13,8.86-1,13.13-2.75,13.57-13.23,22.38-27.15,23.21-3.98.24-7.98.36-11.97.37-11.23.05-22.47.02-33.7.02Zm-4.71-70.02c-.03.1.04-.04.04-.18,0-4.92.02-9.85-.02-14.77,0-.28-.47-.76-.75-.79-5-.49-9.95-.2-14.61,1.84-20.35,8.91-23.04,34.69-8.93,47.66,8.66,7.96,20.82,10.49,31.79,5.88,10.62-4.46,17.58-14.99,17.58-26.6,0-10.14,0-20.29,0-30.43v-1.11c2.86,1.41,5.55,2.86,8.35,4.08,2.8,1.21,5.77,1.89,8.9,2.2.03-.33.07-.54.07-.76,0-5.82-.02-11.64.02-17.45,0-.95-.5-.98-1.18-1.02-4.34-.28-8.27-1.55-11.76-4.31-4.24-3.34-7.14-7.47-8.34-12.73-.21-.92-.64-1.18-1.54-1.16-2.72.05-5.45.02-8.17.02q-2.41,0-2.41,2.42c0,19.92,0,39.83,0,59.75,0,.71.03,1.42-.04,2.12-.57,5.21-4.69,9.8-9.95,10.99-6.12,1.38-11.16-1.27-14.03-5.48-5.33-7.8-.74-18.43,8.59-20.1,2.04-.36,4.2-.05,6.41-.05Z"/></svg>