<?xml version="1.0" encoding="UTF-8"?><svg id="Capa_1" xmlns="http://www.w3.org/2000/svg" viewBox="0 0 357.17 72.96"><defs><style>.cls-1{fill:#bd9559;}.cls-1,.cls-2,.cls-3,.cls-4{stroke-width:0px;}.cls-2{fill:#b8945d;}.cls-3{fill:#b99965;}.cls-4{fill:#ba9862;}</style></defs><path class="cls-2" d="m253.99,36.31c2.7,3.04,5.36,2.73,7.85,1.87,3.04-1.05,5.04-3.26,5.45-6.63,1-8.27-6.19-14.32-14.63-12.23-7.15,1.77-12.32,6.64-17.58,11.35-7.11,6.38-13.54,13.51-21.8,18.6-13.48,8.3-25.74,5.8-34.71-7.69-2.62,4.67-5.93,8.56-10.85,10.57-8.7,3.55-16.75,1.63-24.41-3.21-8.18-5.17-14.57-12.39-21.68-18.78-5.08-4.57-10.24-9.02-17.04-10.85-8.21-2.21-15.7,4.06-14.65,12.24.43,3.33,2.42,5.6,5.47,6.65,2.48.85,5.15,1.12,7.81-1.82-1.66,0-2.7.07-3.72-.01-3.36-.29-5.8-3.08-5.63-6.38.18-3.43,3.1-6,6.61-5.81,4.31.23,7.5,3.51,7.65,7.85.16,4.67-3.43,9.03-7.91,9.61-6.1.79-11.5-2.48-13.05-7.87-1.8-6.28,1.34-13.51,7.17-16.31,7.56-3.63,14.23-.93,20.52,3.25,7.18,4.77,12.96,11.19,19.26,17,4.83,4.46,9.84,8.66,15.94,11.28,11.24,4.83,22.65.14,26.21-10.7,2.95-8.99-2.39-18.06-11.43-19.27-4.5-.6-8.31.93-10.85,4.68-2.23,3.3-2.82,6.94-.29,10.91.65-1.11,1.09-2.06,1.69-2.89,1.97-2.72,5.12-3.51,8-1.99,3.05,1.61,3.9,4.36,2.93,7.39-.98,3.08-3.45,4.55-6.76,4.24-4.98-.48-9.4-4.39-10.37-9.12-1.1-5.36,1.92-11.88,6.73-14.54,5.74-3.17,13.42-2.27,18.28,2.28,1.54,1.44,2.84,3.15,4.55,5.06,1.9-2.82,4.09-5.35,7.07-7.06,5.65-3.24,12.65-2.85,17.36,1.05,4.32,3.57,6.09,9.66,4.3,14.66-1.44,4.03-4.39,6.38-8.4,7.42-3.65.95-7.02-.64-8.14-3.68-1.07-2.9.28-6.44,2.96-7.78,3.23-1.61,6.5-.42,8.58,3.13.3.51.51,1.08.79,1.68,2.44-3.53,2.37-7.52-.09-10.89-2.98-4.06-7.99-5.73-12.76-4.18-5.65,1.84-9.34,5.67-10.07,11.57-.92,7.44,2.05,13.48,8.51,17.24,8.94,5.21,17.24,2.37,25.04-3,5.62-3.88,10.53-8.6,15.41-13.36,4.6-4.49,9.2-8.98,14.79-12.29,4.08-2.41,8.39-4.03,13.23-3.72,5.77.37,10.65,4.22,12.56,9.93,1.77,5.29.43,10.09-3.79,13.61-3.4,2.84-9.27,3.25-12.73.89-3.57-2.43-5.12-6.99-3.74-10.98,1.31-3.78,5.77-6.1,9.46-4.9,3.15,1.02,5,4.36,4.05,7.54-1.29,4.29-4.75,4.72-9.16,4.37Z"/><path class="cls-4" d="m354.83,8.25c-.11-.16-.13-.33-.05-.51-.07-.39-.35-.66-.57-.97-.16-.17-.21-.37-.17-.6-.14-.38-.41-.67-.69-.95h-.01c-.25-.25-.5-.5-.74-.76l-.02-.02c-.26-.26-.54-.5-.84-.71-.76-.33-1.51-.65-2.27-.98-1.37-.35-2.76-.18-4.14-.18-111.16,0-222.32,0-333.48,0-1.38,0-2.77-.2-4.13.21-2.33.93-4.19,2.41-4.92,4.88-.81,2.76.06,5.08,2.6,6.42,2.5,1.32,4.54.54,5.98-1.99-.38-.18-.61-.4-.76-.35-2.23.73-4.09.31-5.01-1.97-.71-1.76.03-3.35,1.7-4.12,2.29-1.06,4.22-.05,5.67,1.74,1.82,2.24,1.65,4.7.13,7.01-1.73,2.63-4.29,3.41-7.27,2.67C1.93,16.13-.25,12.86.02,8.55.28,4.45,3.72.73,7.94.15c1.36-.19,2.77-.1,4.15-.1,110.92,0,221.84-.02,332.76-.01,2.38,0,4.81-.28,7.03.95.27.09.48.25.62.49l.06.03c.3.25.58.51.96.65.93.56,1.78,1.2,2.08,2.33.23.19.39.42.51.69l.3.67c.17.28.33.56.48.85.07.77.13,1.55.2,2.32-1.13.88-1.67-.02-2.26-.76Z"/><path class="cls-3" d="m7.72,2.79c1.21-1.02,2.66-.57,4-.57,111.25-.02,222.49-.02,333.74,0,1.34,0,2.79-.44,4.01.54-2.9,0-5.79.03-8.69.03-111.02,0-222.04,0-333.07,0Z"/><path class="cls-1" d="m178.74,72.96c-2.2-5.12-5.31-7.86-9.67-10.06,4.34-2.28,7.54-4.95,9.37-9.91,2.36,4.64,5.14,7.73,9.99,9.86-4.41,2.27-7.78,4.77-9.7,10.11Z"/><path class="cls-1" d="m178.74,18.12c-1.35-3.15-3.27-4.84-5.95-6.19,2.67-1.41,4.64-3.05,5.77-6.1,1.45,2.86,3.16,4.76,6.15,6.07-2.71,1.4-4.79,2.94-5.97,6.22Z"/><path class="cls-3" d="m354.83,8.25c.75.25,1.51.51,2.26.76.52,4-1.47,6.49-4.98,7.83-2.99,1.14-5.69.48-7.73-2.12-2.48-3.15-1.33-7.66,2.24-9.08,1.56-.62,2.95-.45,4.18.68,1.14,1.06,1.38,2.4.73,3.77-.73,1.53-2.04,2.1-3.73,1.91-.56-.07-1.13-.63-1.89.11,1.08,1.84,2.44,3.07,4.79,2.42,3.18-.88,4.26-3.2,4.15-6.28Z"/><path class="cls-3" d="m354.22,6.77c.19.32.38.64.57.97-.19-.32-.38-.64-.57-.97Z"/><path class="cls-3" d="m356.89,6.69c-.16-.28-.32-.57-.48-.85.16.28.32.57.48.85Z"/><path class="cls-3" d="m353.36,5.22c.23.32.46.63.69.95-.23-.31-.46-.63-.69-.95Z"/><path class="cls-3" d="m356.11,5.17c-.17-.23-.34-.46-.51-.69.17.23.34.46.51.69Z"/><path class="cls-3" d="m352.6,4.47c.25.25.49.5.74.74-.25-.25-.49-.5-.74-.74Z"/><path class="cls-3" d="m351.75,3.74c.28.24.56.48.84.71-.28-.24-.56-.48-.84-.71Z"/><path class="cls-3" d="m353.53,2.14c-.32-.22-.64-.43-.96-.65.32.22.64.43.96.65Z"/><path class="cls-3" d="m352.51,1.47c-.21-.16-.41-.33-.62-.49.21.17.41.33.62.49Z"/></svg>