<?xml version="1.0" encoding="UTF-8"?><svg id="Capa_1" xmlns="http://www.w3.org/2000/svg" viewBox="0 0 337.26 93.87"><defs><style>.cls-1{fill:#c59a6f;stroke-width:0px;}</style></defs><path class="cls-1" d="m6.29,82.53c13.24,11.87,32.05,4.57,42.93-6.78,6.74-7.03,11.24-17.48,21.45-20.07,10.52-2.66,21.99,5.25,20.72,16.66-.44,3.03-1.72,5.72-3.68,8.05-5.61,5.88-15.45,5.66-20.57-.8,3.46,5.64,11.08,7.91,17.2,5.6,7.19-2.72,11.31-10.79,10.2-18.25-1.07-7.21-6.75-13.33-13.63-15.48-7.61-2.38-16.08-.18-22,5.02-5.45,4.58-8.95,11.16-13.88,16.26-3.58,3.71-7.47,6.59-12.04,8.92-11.53,5.34-29.57,1.94-30.44-13.54.03-8.9,8.68-16.94,17.74-13.32-4.36-2.38-9.69-1.53-13.71,1.19C2.3,58.89.35,63.16,0,68.17c-.1,5.39,2.47,10.65,6.29,14.36.26.23-.25-.24,0,0Z"/><path class="cls-1" d="m72.83,47.57c-11.76-1.04-22.67,6.35-30.23,14.71-4.19,4.63-7.48,10.47-13.05,13.64-4.95,2.81-12.24,2.47-14.52-3.66-.31-.98-.49-1.93-.39-2.96-.28,1.04-.26,2.04-.09,3.1,1.47,7.1,9.8,8.53,15.55,6.07,6.22-2.67,10.01-8.43,14.28-13.36,8.01-9.24,18.72-17.43,31.5-17.06-1-.22-2.03-.41-3.05-.47-1.98-.17.5.03,0,0Z"/><path class="cls-1" d="m74.6,60.44c.74-.4,1.56-.66,2.34-.98-6.48,1.16-11.82,4.5-16.57,8.95-6.24,5.84-10.81,13.51-17.8,18.57-5.07,3.94-11.37,6.23-17.82,5.78,10.23,2.97,20.16-2.82,27-10.05,7.31-7.72,12.78-17.69,22.86-22.27.36-.19-1.48.67,0,0Z"/><path class="cls-1" d="m330.97,82.53c-13.24,11.87-32.05,4.57-42.93-6.78-6.74-7.03-11.24-17.48-21.45-20.07-10.52-2.66-21.99,5.25-20.72,16.66.44,3.03,1.72,5.72,3.68,8.05,5.61,5.88,15.45,5.66,20.57-.8-3.46,5.64-11.08,7.91-17.2,5.6-7.19-2.72-11.31-10.79-10.2-18.25,1.07-7.21,6.75-13.33,13.63-15.48,7.61-2.38,16.08-.18,22,5.02,5.45,4.58,8.95,11.16,13.88,16.26,3.58,3.71,7.47,6.59,12.04,8.92,11.53,5.34,29.57,1.94,30.44-13.54-.03-8.9-8.68-16.94-17.74-13.32,4.36-2.38,9.69-1.53,13.71,1.19,4.3,2.9,6.25,7.17,6.6,12.18.1,5.39-2.47,10.65-6.29,14.36-.26.23.25-.24,0,0Z"/><path class="cls-1" d="m264.43,47.57c11.76-1.04,22.67,6.35,30.23,14.71,4.19,4.63,7.48,10.47,13.05,13.64,4.95,2.81,12.24,2.47,14.52-3.66.31-.98.49-1.93.39-2.96.28,1.04.26,2.04.09,3.1-1.47,7.1-9.8,8.53-15.55,6.07-6.22-2.67-10.01-8.43-14.28-13.36-8.01-9.24-18.72-17.43-31.5-17.06,1-.22,2.03-.41,3.05-.47,1.98-.17-.5.03,0,0Z"/><path class="cls-1" d="m262.66,60.44c-.74-.4-1.56-.66-2.34-.98,6.48,1.16,11.82,4.5,16.57,8.95,6.24,5.84,10.81,13.51,17.8,18.57,5.07,3.94,11.37,6.23,17.82,5.78-10.23,2.97-20.16-2.82-27-10.05-7.31-7.72-12.78-17.69-22.86-22.27-.36-.19,1.48.67,0,0Z"/><path class="cls-1" d="m232.94,33.76l-8.19,48.18c-14.57-5.24-34.35-8.46-56.12-8.46s-41.52,3.21-56.1,8.45l-8.21-48.17,19.43,17.93-5.15,8.18,3.63,3.25c3.78,3.37,9.69,2.59,12.46-1.66l.65-1c1.65-2.51,1.8-5.7.42-8.36l-4.63-8.91,6.95-13.13,10.02,11.85-2.45,8.44c-.91,3.12.09,6.48,2.54,8.6,4.47,3.86,11.44,1.93,13.29-3.68l2.84-8.58-13.82-28.02L168.63,0l18.13,18.68-13.82,28.02,2.84,8.58c1.85,5.61,8.81,7.54,13.29,3.68,2.45-2.12,3.45-5.48,2.54-8.6l-2.45-8.44,10.02-11.85,6.95,13.13-4.63,8.91c-1.38,2.66-1.23,5.85.41,8.36l.65,1c2.79,4.26,8.68,5.04,12.48,1.66l3.63-3.25-5.15-8.18,19.42-17.93Z"/><path class="cls-1" d="m224.08,86.07l-1.27,7.8c-14.37-4.84-33.36-7.8-54.19-7.8s-39.44,2.89-53.75,7.66l-1.53-7.71c14.5-5.07,33.93-8.17,55.29-8.17s40.94,3.12,55.45,8.22Z"/></svg>